<svg width="144" height="26" fill="none" xmlns="http://www.w3.org/2000/svg"><path fill-rule="evenodd" clip-rule="evenodd" d="M16.4 4.8c0 .3-.3.6-.5.6h-9l4.6 5.5H13c.4 0 .7.2.7.5v3.3c0 .3-.3.6-.7.6H4.4v9.3c0 .3-.2.6-.5.6H.6c-.3 0-.6-.3-.6-.6V10.9h5.7L0 4V1.6c0-.3.3-.6.6-.6h15.3c.3 0 .5.3.5.6v3.2zm24.8 19.7c0 .3-.3.6-.5.6H25.4c-.3 0-.6-.3-.6-.6v-23c0-.3.3-.6.6-.6h14.8c.3 0 .6.3.6.6v3.3c0 .3-.3.5-.6.5h-11v5.5h10.4c.3 0 .6.2.6.5v3.3c0 .3-.3.6-.6.6H29.2v5.5h11.5c.3 0 .5.3.5.6v3.2zm25.1 0c0 .3-.3.6-.5.6H50.5c-.3 0-.6-.3-.6-.6v-23c0-.3.3-.6.6-.6h14.8c.3 0 .6.3.6.6v3.3c0 .3-.3.5-.6.5h-11v5.5h10.4c.3 0 .6.2.6.5v3.3c0 .3-.3.6-.6.6H54.3v5.5h11.5c.3 0 .5.3.5.6v3.2zm9.2.6c-.3 0-.6-.3-.6-.7V1.6c0-.3.3-.5.6-.5h6c3.5 0 6.9 1.5 9.3 4.4 4.2 5.1 3.5 12.7-1.6 16.9-2.2 1.8-5 2.7-7.7 2.7h-6zm6-19.7h-2.2v15.3h2.2c1.7 0 3.5-.6 4.9-1.7 3.3-2.7 3.8-7.5 1.1-10.8-1.5-1.8-3.8-2.8-6-2.8zm36.9 19.1c0 .3-.3.6-.5.6h-15.3c-.3 0-.6-.3-.6-.6v-23c0-.3.3-.6.6-.6h14.8c.3 0 .6.3.6.6v3.3c0 .3-.3.5-.6.5h-10.9v5.5h10.4c.3 0 .6.2.6.5v3.3c0 .3-.3.6-.6.6h-10.4v5.5H118c.3 0 .5.3.5.6v3.2h-.1zm24.1-.2c.1.1.1.2.1.3 0 .3-.2.6-.5.6h-3.8c-.2 0-.4-.1-.4-.3l-.1-.1-4.8-8.5-.6-1.1h-2.1v9.3c0 .3-.3.6-.5.6h-3.3c-.3 0-.6-.3-.6-.6V10.9h4l-3.7-6.6-.3-.5V1.6c0-.3.3-.5.6-.5h8.2c2.5 0 4.8.7 6.3 2s2.4 3.1 2.4 5.1c0 2.9-2.1 5.9-6.2 6.8l.1.3.6 1.1 4.6 7.9zM135 10.9c.3 0 .6 0 .8-.1 2.3-.3 3.3-1.5 3.3-2.7 0-1.3-1.3-2.7-4.4-2.7h-2.8l2.5 4.4.6 1.1z" fill="#333"/></svg>