<svg width="144" height="26" viewBox="0 0 144 26" fill="none" xmlns="http://www.w3.org/2000/svg">
<path fill-rule="evenodd" clip-rule="evenodd" d="M16.4 4.8C16.4 5.1 16.1 5.4 15.9 5.4H6.9L11.5 10.9H13C13.4 10.9 13.7 11.1 13.7 11.4V14.7C13.7 15 13.4 15.3 13 15.3H4.4V24.6C4.4 24.9 4.2 25.2 3.9 25.2H0.6C0.3 25.2 0 24.9 0 24.6V10.9H5.7L0 4V1.6C0 1.3 0.3 1 0.6 1H15.9C16.2 1 16.4 1.3 16.4 1.6V4.8Z" fill="white"/>
<path fill-rule="evenodd" clip-rule="evenodd" d="M41.2 24.4999C41.2 24.7999 40.9 25.0999 40.7 25.0999H25.4C25.1 25.0999 24.8 24.7999 24.8 24.4999V1.4999C24.8 1.1999 25.1 0.899902 25.4 0.899902H40.2C40.5 0.899902 40.8 1.1999 40.8 1.4999V4.7999C40.8 5.0999 40.5 5.2999 40.2 5.2999H29.2V10.7999H39.6C39.9 10.7999 40.2 10.9999 40.2 11.2999V14.5999C40.2 14.8999 39.9 15.1999 39.6 15.1999H29.2V20.6999H40.7C41 20.6999 41.2 20.9999 41.2 21.2999V24.4999Z" fill="white"/>
<path fill-rule="evenodd" clip-rule="evenodd" d="M66.3 24.4999C66.3 24.7999 66 25.0999 65.8 25.0999H50.5C50.2 25.0999 49.9 24.7999 49.9 24.4999V1.4999C49.9 1.1999 50.2 0.899902 50.5 0.899902H65.3C65.6 0.899902 65.9 1.1999 65.9 1.4999V4.7999C65.9 5.0999 65.6 5.2999 65.3 5.2999H54.3V10.7999H64.7C65 10.7999 65.3 10.9999 65.3 11.2999V14.5999C65.3 14.8999 65 15.1999 64.7 15.1999H54.3V20.6999H65.8C66.1 20.6999 66.3 20.9999 66.3 21.2999V24.4999Z" fill="white"/>
<path fill-rule="evenodd" clip-rule="evenodd" d="M75.5 25.1001C75.2 25.1001 74.9 24.8001 74.9 24.4001V1.6001C74.9 1.3001 75.2 1.1001 75.5 1.1001H81.5C85 1.1001 88.4 2.6001 90.8 5.5001C95 10.6001 94.3 18.2001 89.2 22.4001C87 24.2001 84.2 25.1001 81.5 25.1001H75.5ZM81.5 5.4001H79.3V20.7001H81.5C83.2 20.7001 85 20.1001 86.4 19.0001C89.7 16.3001 90.2 11.5001 87.5 8.2001C86 6.4001 83.7 5.4001 81.5 5.4001Z" fill="white"/>
<path fill-rule="evenodd" clip-rule="evenodd" d="M118.4 24.4999C118.4 24.7999 118.1 25.0999 117.9 25.0999H102.6C102.3 25.0999 102 24.7999 102 24.4999V1.4999C102 1.1999 102.3 0.899902 102.6 0.899902H117.4C117.7 0.899902 118 1.1999 118 1.4999V4.7999C118 5.0999 117.7 5.2999 117.4 5.2999H106.5V10.7999H116.9C117.2 10.7999 117.5 10.9999 117.5 11.2999V14.5999C117.5 14.8999 117.2 15.1999 116.9 15.1999H106.5V20.6999H118C118.3 20.6999 118.5 20.9999 118.5 21.2999V24.4999H118.4Z" fill="white"/>
<path fill-rule="evenodd" clip-rule="evenodd" d="M142.5 24.3001C142.6 24.4001 142.6 24.5001 142.6 24.6001C142.6 24.9001 142.4 25.2001 142.1 25.2001H138.3C138.1 25.2001 137.9 25.1001 137.9 24.9001L137.8 24.8001L133 16.3001L132.4 15.2001H130.3V24.5001C130.3 24.8001 130 25.1001 129.8 25.1001H126.5C126.2 25.1001 125.9 24.8001 125.9 24.5001V10.9001H129.9L126.2 4.3001L125.9 3.8001V1.6001C125.9 1.3001 126.2 1.1001 126.5 1.1001H134.7C137.2 1.1001 139.5 1.8001 141 3.1001C142.5 4.4001 143.4 6.2001 143.4 8.2001C143.4 11.1001 141.3 14.1001 137.2 15.0001L137.3 15.3001L137.9 16.4001L142.5 24.3001ZM135 10.9001C135.3 10.9001 135.6 10.9001 135.8 10.8001C138.1 10.5001 139.1 9.3001 139.1 8.1001C139.1 6.8001 137.8 5.4001 134.7 5.4001H131.9L134.4 9.8001L135 10.9001Z" fill="white"/>
</svg>
